# xmcd
#
# Track frame offsets: 
#        150
#        14755
#        34795
#        56629
#        71655
#        97052
#        120111
#        150952
#        166605
#        192608
#        211855
#
# Disc length: 2971 seconds
#
# Revision: 0
# Processed by: cddbd v1.5.2PL0 Copyright (c) Steve Scherf et al.
# Submitted via: ExactAudioCopy v1.0b4
#
DISCID=8c0b990b
DTITLE=Zora Young and Little Mike and The Tornadoes - Friday Night
DYEAR=2015
DGENRE=Blues
TTITLE0=I've Been A Fool Too Long
TTITLE1=A Fool's Lament
TTITLE2=44 Blues
TTITLE3=True Love Is Hard To Find
TTITLE4=I Love Chicago
TTITLE5=Friday Night
TTITLE6=Chains Of Love
TTITLE7=Just Your Fool
TTITLE8=Country Girl
TTITLE9=I'm Good
TTITLE10=Spann's Boogie
EXTD=
EXTT0=
EXTT1=
EXTT2=
EXTT3=
EXTT4=
EXTT5=
EXTT6=
EXTT7=
EXTT8=
EXTT9=
EXTT10=
PLAYORDER=
